<svg xmlns="http://www.w3.org/2000/svg" xmlns:xlink="http://www.w3.org/1999/xlink" width="42" height="42" viewBox="0 0 42 42">
  <defs>
    <filter id="Ellipse_15" x="0" y="0" width="42" height="42" filterUnits="userSpaceOnUse">
      <feOffset dy="3" input="SourceAlpha"/>
      <feGaussianBlur stdDeviation="3" result="blur"/>
      <feFlood flood-opacity="0.161"/>
      <feComposite operator="in" in2="blur"/>
      <feComposite in="SourceGraphic"/>
    </filter>
  </defs>
  <g id="Group_50" data-name="Group 50" transform="translate(-1110 -15)">
    <g transform="matrix(1, 0, 0, 1, 1110, 15)" filter="url(#Ellipse_15)">
      <circle id="Ellipse_15-2" data-name="Ellipse 15" cx="12" cy="12" r="12" transform="translate(9 6)" fill="#fff"/>
    </g>
    <circle id="Ellipse_16" data-name="Ellipse 16" cx="2.5" cy="2.5" r="2.5" transform="translate(1124 32)" fill="#793be7"/>
    <circle id="Ellipse_17" data-name="Ellipse 17" cx="2.5" cy="2.5" r="2.5" transform="translate(1130 27)" fill="#793be7"/>
    <circle id="Ellipse_18" data-name="Ellipse 18" cx="2" cy="2" r="2" transform="translate(1131 34)" fill="#793be7"/>
    <path id="Path_625" data-name="Path 625" d="M1120.818,26.761h0c-.01-.01-4.947-5.227-2.815-6.7s6.034,3.164,6.034,3.164" transform="translate(1)" fill="none" stroke="#fff" stroke-width="1"/>
    <path id="Path_626" data-name="Path 626" d="M1120.818,26.761h0c-.01-.01-4.947-5.227-2.815-6.7s6.034,3.164,6.034,3.164" transform="matrix(-0.996, 0.087, -0.087, -0.996, 2260.268, -34.232)" fill="none" stroke="#fff" stroke-width="1"/>
  </g>
</svg>
